# Blender v2.76 (sub 0) OBJ File: ''
# www.blender.org
v -5.846641 0.000000 5.846641
v 5.846641 0.000000 5.846641
v -5.846641 0.000000 -5.846641
v 5.846641 0.000000 -5.846641
v -5.846641 0.000000 0.000000
v 0.000000 0.927124 5.846641
v 5.846641 0.000000 0.000000
v 0.000000 2.657992 -5.846641
v 0.000000 0.995757 0.000000
v -5.846641 0.000000 2.923320
v 2.923320 0.000000 5.846641
v 5.846641 0.000000 -2.923320
v -2.923320 1.034087 -5.846641
v -5.846641 0.000000 -2.923320
v -2.923320 0.000000 5.846641
v 5.846641 0.000000 2.923320
v 2.923320 1.034087 -5.846641
v 0.000000 2.657992 -2.923320
v 0.000000 0.927125 2.923320
v -2.923320 0.000000 0.000000
v 2.923320 0.000000 0.000000
v 2.923320 0.000000 2.923320
v -2.923320 0.000000 2.923320
v -2.923320 1.034087 -2.923320
v 2.923320 1.034087 -2.923320
v -5.846641 0.000000 4.384980
v 4.384980 0.000000 5.846641
v 5.846641 0.000000 -4.384980
v -4.384980 0.000000 -5.846641
v -5.846641 0.000000 -1.461660
v -1.461660 0.000000 5.846641
v 5.846641 0.000000 1.461660
v 1.461660 2.304095 -5.846641
v 0.000000 3.362208 -4.384980
v 0.000000 0.516615 1.461660
v -4.384980 0.000000 0.000000
v 1.461660 0.516615 0.000000
v -5.846641 0.000000 1.461660
v 1.461660 0.000000 5.846641
v 5.846641 0.000000 -1.461660
v -1.461660 2.304095 -5.846641
v -5.846641 0.000000 -4.384980
v -4.384980 0.000000 5.846641
v 5.846641 0.000000 4.384980
v 4.384980 0.000000 -5.846641
v 0.000000 2.119234 -1.461660
v 0.000000 1.787001 4.384980
v -1.461660 0.516615 0.000000
v 4.384980 0.000000 0.000000
v 2.923320 0.000000 1.461660
v 2.923320 0.000000 4.384980
v 1.461660 0.000000 2.923320
v 4.384980 0.000000 2.923320
v -2.923320 0.000000 1.461660
v -2.923320 0.000000 4.384980
v -4.384980 0.000000 2.923320
v -1.461660 0.000000 2.923320
v -2.923320 1.680893 -4.384980
v -2.923320 0.000000 -1.461660
v -4.384980 0.000000 -2.923320
v -1.461660 2.304096 -2.923320
v 2.923320 1.680893 -4.384980
v 2.923320 0.000000 -1.461660
v 1.461660 2.304096 -2.923320
v 4.384980 0.000000 -2.923320
v 4.384980 0.000000 -1.461660
v 1.461660 1.034087 -1.461660
v 1.461660 2.657992 -4.384980
v -1.461660 1.034087 -1.461660
v -4.384980 0.000000 -1.461660
v -4.384980 0.000000 -4.384980
v -1.461660 0.927124 4.384980
v -4.384980 0.000000 4.384980
v -4.384980 0.000000 1.461660
v 4.384980 0.000000 4.384980
v 1.461660 0.927124 4.384980
v 1.461660 0.000000 1.461660
v 4.384980 0.000000 1.461660
v -1.461660 0.000000 1.461660
v -1.461660 2.657992 -4.384980
v 4.384980 0.000000 -4.384980
vn 0.000000 1.000000 0.000000
vn -0.398200 0.826400 -0.398200
vn -0.297400 0.907300 0.297400
vn -0.452200 0.768700 -0.452200
vn -0.724700 0.630200 -0.278900
vn -0.500100 0.706900 0.500100
vn -0.221500 0.915000 0.337300
vn 0.622100 0.716000 -0.316800
vn 0.500100 0.706900 0.500100
vn 0.488900 0.658500 0.572200
vn 0.295200 0.900600 0.318900
vn 0.333200 0.942800 0.000000
vn 0.229100 0.946100 -0.229100
vn 0.229100 0.946100 0.229100
vn 0.622100 0.716000 0.316800
vn -0.548400 0.631200 0.548400
vn -0.554800 0.784300 0.277700
vn -0.507300 0.683300 0.525200
vn -0.724700 0.630200 0.278900
vn -0.472200 0.744400 -0.472200
vn -0.472200 0.744400 0.472200
vn -0.452200 0.768700 0.452200
vn 0.472200 0.744400 -0.472200
vn 0.472200 0.744400 0.472200
vn 0.316100 0.894500 0.316100
vn -0.316100 0.894500 0.316100
vn -0.521200 0.821700 -0.230800
vn -0.544800 0.815000 -0.197300
vn -0.544800 0.815000 0.197300
vn -0.398200 0.826400 0.398200
vn 0.577600 0.816400 0.000000
vn -0.229100 0.946100 -0.229100
vn -0.577600 0.816400 0.000000
vn -0.488900 0.658500 0.572200
vn 0.544800 0.815000 -0.197300
vn 0.548400 0.631200 0.548400
vn 0.221500 0.915000 0.337300
vn 0.507300 0.683300 0.525200
vn 0.554800 0.784300 0.277700
vn 0.398200 0.826400 -0.398200
vn 0.398200 0.826400 0.398200
vn 0.544800 0.815000 0.197300
vn -0.333200 0.942800 0.000000
vn -0.295200 0.900600 0.318900
vn 0.452200 0.768700 -0.452200
vn 0.452200 0.768700 0.452200
vn 0.297400 0.907300 0.297400
vn 0.521200 0.821700 -0.230800
vn -0.622100 0.716000 -0.316800
vn -0.622100 0.716000 0.316800
vn -0.229100 0.946100 0.229100
vn 0.724700 0.630200 -0.278900
vn 0.724700 0.630200 0.278900
s off
f 28//1 4//1 45//1
f 80//2 34//2 8//2
f 35//3 9//3 48//3
f 32//1 7//1 49//1
f 77//1 50//1 21//1
f 51//1 22//1 52//1
f 44//1 16//1 53//1
f 54//1 20//1 36//1
f 55//1 23//1 56//1
f 72//4 47//4 19//4
f 71//5 58//5 13//5
f 59//6 24//6 60//6
f 46//7 18//7 61//7
f 62//8 17//8 33//8
f 67//9 63//9 25//9
f 40//1 12//1 65//1
f 63//1 66//1 65//1
f 49//1 66//1 63//1
f 7//1 40//1 66//1
f 46//10 67//10 64//10
f 9//11 37//11 67//11
f 37//12 21//12 63//12
f 68//13 33//13 8//13
f 18//14 64//14 68//14
f 64//15 25//15 62//15
f 69//16 61//16 24//16
f 48//17 69//17 59//17
f 9//18 46//18 69//18
f 70//1 60//1 14//1
f 36//1 70//1 30//1
f 20//1 59//1 70//1
f 71//1 29//1 3//1
f 60//1 71//1 42//1
f 24//19 58//19 71//19
f 55//20 72//20 57//20
f 31//21 72//21 55//21
f 6//22 47//22 72//22
f 73//1 56//1 10//1
f 43//1 73//1 26//1
f 15//1 55//1 73//1
f 74//1 36//1 5//1
f 56//1 74//1 38//1
f 23//1 54//1 74//1
f 75//1 53//1 22//1
f 27//1 75//1 51//1
f 2//1 44//1 75//1
f 76//23 52//23 19//23
f 6//24 39//24 76//24
f 39//1 11//1 51//1
f 35//25 77//25 37//25
f 52//12 77//12 35//12
f 22//1 50//1 77//1
f 78//1 49//1 21//1
f 53//1 78//1 50//1
f 16//1 32//1 78//1
f 79//26 48//26 20//26
f 57//1 79//1 54//1
f 57//27 19//27 35//27
f 58//28 80//28 41//28
f 61//29 80//29 58//29
f 18//30 34//30 80//30
f 81//31 45//31 17//31
f 25//31 65//31 81//31
f 12//1 28//1 81//1
f 81//1 28//1 45//1
f 41//32 80//32 8//32
f 79//26 35//26 48//26
f 78//1 32//1 49//1
f 37//25 77//25 21//25
f 76//23 51//23 52//23
f 75//1 44//1 53//1
f 74//1 54//1 36//1
f 73//1 55//1 56//1
f 57//20 72//20 19//20
f 29//33 71//33 13//33
f 70//1 59//1 60//1
f 69//34 46//34 61//34
f 68//35 62//35 33//35
f 64//36 67//36 25//36
f 66//1 40//1 65//1
f 25//9 63//9 65//9
f 21//1 49//1 63//1
f 49//1 7//1 66//1
f 18//37 46//37 64//37
f 46//38 9//38 67//38
f 67//39 37//39 63//39
f 34//40 68//40 8//40
f 34//41 18//41 68//41
f 68//42 64//42 62//42
f 59//6 69//6 24//6
f 20//43 48//43 59//43
f 48//44 9//44 69//44
f 30//1 70//1 14//1
f 5//1 36//1 30//1
f 36//1 20//1 70//1
f 42//1 71//1 3//1
f 14//1 60//1 42//1
f 60//33 24//33 71//33
f 23//1 55//1 57//1
f 15//1 31//1 55//1
f 31//21 6//21 72//21
f 26//1 73//1 10//1
f 1//1 43//1 26//1
f 43//1 15//1 73//1
f 38//1 74//1 5//1
f 10//1 56//1 38//1
f 56//1 23//1 74//1
f 51//1 75//1 22//1
f 11//1 27//1 51//1
f 27//1 2//1 75//1
f 47//45 76//45 19//45
f 47//46 6//46 76//46
f 76//24 39//24 51//24
f 9//47 35//47 37//47
f 19//48 52//48 35//48
f 52//1 22//1 77//1
f 50//1 78//1 21//1
f 22//1 53//1 50//1
f 53//1 16//1 78//1
f 54//1 79//1 20//1
f 23//1 57//1 54//1
f 79//43 57//43 35//43
f 13//49 58//49 41//49
f 24//50 61//50 58//50
f 61//51 18//51 80//51
f 62//52 81//52 17//52
f 62//53 25//53 81//53
f 65//1 12//1 81//1
