# Blender v2.76 (sub 0) OBJ File: ''
# www.blender.org
v 2.000000 -0.760070 -4.705598
v 2.000000 -0.760070 4.705598
v -2.000000 -0.760070 4.705597
v -1.999999 -0.760070 -4.705600
v 2.000001 0.760070 -4.705595
v 1.999999 0.760070 4.705601
v -2.000001 0.760070 4.705596
v -2.000000 0.760070 -4.705598
v 6.000002 0.760070 -4.705598
v 6.000002 0.760070 4.705598
v 2.000002 0.760070 4.705597
v 2.000003 0.760070 -4.705600
v 6.000003 2.280210 -4.705595
v 6.000000 2.280210 4.705601
v 2.000001 2.280210 4.705596
v 2.000002 2.280210 -4.705598
vn 0.000000 -1.000000 0.000000
vn 0.000000 1.000000 -0.000000
vn 1.000000 0.000000 0.000000
vn -0.000000 0.000000 1.000000
vn -1.000000 -0.000000 -0.000000
vn 0.000000 0.000000 -1.000000
s off
f 1//1 2//1 3//1
f 5//2 8//2 7//2
f 5//3 6//3 2//3
f 6//4 7//4 3//4
f 7//5 8//5 4//5
f 1//6 4//6 8//6
f 9//1 10//1 11//1
f 13//2 16//2 15//2
f 13//3 14//3 10//3
f 14//4 15//4 11//4
f 15//5 16//5 12//5
f 9//6 12//6 16//6
f 4//1 1//1 3//1
f 6//2 5//2 7//2
f 1//3 5//3 2//3
f 2//4 6//4 3//4
f 3//5 7//5 4//5
f 5//6 1//6 8//6
f 12//1 9//1 11//1
f 14//2 13//2 15//2
f 9//3 13//3 10//3
f 10//4 14//4 11//4
f 11//5 15//5 12//5
f 13//6 9//6 16//6
