# Blender v2.76 (sub 0) OBJ File: ''
# www.blender.org
v 2.000000 -1.733222 -4.440304
v 2.000000 0.247117 4.760178
v -2.000000 0.247117 4.760177
v -1.999999 -1.733222 -4.440306
v 2.000001 -0.247117 -4.760176
v 1.999999 1.733222 4.440307
v -2.000001 1.733221 4.440302
v -2.000000 -0.247117 -4.760178
v 6.000002 -0.247117 -4.760178
v 6.000002 1.733222 4.440304
v 2.000002 1.733221 4.440303
v 2.000003 -0.247118 -4.760180
v 6.000003 1.238987 -5.080049
v 6.000000 3.219326 4.120433
v 2.000001 3.219325 4.120429
v 2.000002 1.238987 -5.080051
v 10.000004 1.238987 -5.080051
v 10.000004 3.219326 4.120430
v 6.000004 3.219326 4.120430
v 6.000005 1.238986 -5.080053
v 10.000005 2.725092 -5.399922
v 10.000003 4.705431 3.800560
v 6.000003 4.705430 3.800556
v 6.000004 2.725091 -5.399924
v 14.000006 2.725091 -5.399924
v 14.000006 4.705430 3.800557
v 10.000006 4.705430 3.800556
v 10.000007 2.725091 -5.399926
v 14.000007 4.211195 -5.719796
v 14.000005 6.191535 3.480687
v 10.000005 6.191534 3.480682
v 10.000006 4.211195 -5.719798
v 18.000008 4.211195 -5.719798
v 18.000008 6.191534 3.480684
v 14.000008 6.191534 3.480683
v 14.000009 4.211195 -5.719800
v 18.000008 5.697300 -6.039669
v 18.000006 7.677639 3.160813
v 14.000007 7.677638 3.160809
v 14.000008 5.697299 -6.039671
v 22.000010 5.697299 -6.039671
v 22.000010 7.677639 3.160810
v 18.000010 7.677638 3.160809
v 18.000010 5.697299 -6.039673
v 22.000011 7.183404 -6.359543
v 22.000008 9.163743 2.840940
v 18.000010 9.163742 2.840935
v 18.000010 7.183404 -6.359545
v 26.000011 7.183404 -6.359545
v 26.000011 9.163743 2.840937
v 22.000011 9.163743 2.840936
v 22.000011 7.183404 -6.359547
v 26.000011 8.669509 -6.679416
v 26.000010 10.649847 2.521066
v 22.000011 10.649846 2.521062
v 22.000011 8.669508 -6.679418
v 30.000013 8.669508 -6.679418
v 30.000013 10.649847 2.521063
v 26.000013 10.649847 2.521062
v 26.000013 8.669508 -6.679420
v 30.000015 10.155613 -6.999290
v 30.000011 12.135951 2.201193
v 26.000013 12.135950 2.201189
v 26.000013 10.155612 -6.999291
vn -0.000000 -0.977600 0.210400
vn -0.000000 0.977600 -0.210400
vn 1.000000 0.000000 0.000000
vn -0.000000 0.210400 0.977600
vn -1.000000 -0.000000 -0.000000
vn 0.000000 -0.210400 -0.977600
s off
f 1//1 2//1 3//1
f 5//2 8//2 7//2
f 5//3 6//3 2//3
f 6//4 7//4 3//4
f 7//5 8//5 4//5
f 1//6 4//6 8//6
f 9//1 10//1 11//1
f 13//2 16//2 15//2
f 13//3 14//3 10//3
f 14//4 15//4 11//4
f 11//5 15//5 16//5
f 9//6 12//6 16//6
f 18//1 19//1 20//1
f 21//2 24//2 23//2
f 21//3 22//3 18//3
f 22//4 23//4 19//4
f 19//5 23//5 24//5
f 21//6 17//6 20//6
f 25//1 26//1 27//1
f 29//2 32//2 31//2
f 29//3 30//3 26//3
f 30//4 31//4 27//4
f 27//5 31//5 32//5
f 29//6 25//6 28//6
f 34//1 35//1 36//1
f 37//2 40//2 39//2
f 37//3 38//3 34//3
f 38//4 39//4 35//4
f 35//5 39//5 40//5
f 33//6 36//6 40//6
f 41//1 42//1 43//1
f 45//2 48//2 47//2
f 45//3 46//3 42//3
f 46//4 47//4 43//4
f 47//5 48//5 44//5
f 41//6 44//6 48//6
f 49//1 50//1 51//1
f 53//2 56//2 55//2
f 53//3 54//3 50//3
f 54//4 55//4 51//4
f 51//5 55//5 56//5
f 49//6 52//6 56//6
f 57//1 58//1 59//1
f 61//2 64//2 63//2
f 61//3 62//3 58//3
f 62//4 63//4 59//4
f 59//5 63//5 64//5
f 57//6 60//6 64//6
f 4//1 1//1 3//1
f 6//2 5//2 7//2
f 1//3 5//3 2//3
f 2//4 6//4 3//4
f 3//5 7//5 4//5
f 5//6 1//6 8//6
f 12//1 9//1 11//1
f 14//2 13//2 15//2
f 9//3 13//3 10//3
f 10//4 14//4 11//4
f 12//5 11//5 16//5
f 13//6 9//6 16//6
f 17//1 18//1 20//1
f 22//2 21//2 23//2
f 17//3 21//3 18//3
f 18//4 22//4 19//4
f 20//5 19//5 24//5
f 24//6 21//6 20//6
f 28//1 25//1 27//1
f 30//2 29//2 31//2
f 25//3 29//3 26//3
f 26//4 30//4 27//4
f 28//5 27//5 32//5
f 32//6 29//6 28//6
f 33//1 34//1 36//1
f 38//2 37//2 39//2
f 33//3 37//3 34//3
f 34//4 38//4 35//4
f 36//5 35//5 40//5
f 37//6 33//6 40//6
f 44//1 41//1 43//1
f 46//2 45//2 47//2
f 41//3 45//3 42//3
f 42//4 46//4 43//4
f 43//5 47//5 44//5
f 45//6 41//6 48//6
f 52//1 49//1 51//1
f 54//2 53//2 55//2
f 49//3 53//3 50//3
f 50//4 54//4 51//4
f 52//5 51//5 56//5
f 53//6 49//6 56//6
f 60//1 57//1 59//1
f 62//2 61//2 63//2
f 57//3 61//3 58//3
f 58//4 62//4 59//4
f 60//5 59//5 64//5
f 61//6 57//6 64//6
